<?xml version="1.0" encoding="iso-8859-1"?>
<!-- Uploaded to: SVG Repo, www.svgrepo.com, Generator: SVG Repo Mixer Tools -->
<svg version="1.1" id="Layer_1" xmlns="http://www.w3.org/2000/svg" xmlns:xlink="http://www.w3.org/1999/xlink" 
	 viewBox="0 0 511.782 511.782" xml:space="preserve">
<path d="M114.192,225.749c-6.392,3.304-20.496,6.608-38.36,6.608C28.656,232.357,0,202.821,0,157.621
	c0-48.944,33.952-78.488,79.368-78.488c17.848,0,30.64,3.752,36.152,6.616l-5.944,21.6c-7.056-3.088-16.76-5.736-29.104-5.736
	c-30.2,0-52.032,18.96-52.032,54.68c0,32.624,19.176,53.568,51.816,53.568c11.016,0,22.488-2.2,29.536-5.512L114.192,225.749z"/>
<path d="M135.592,73.629h27.344v156.52h-27.344V73.629z"/>
<path d="M221.144,92.813c0,8.16-5.952,14.544-15.432,14.544c-9.04,0-14.992-6.392-14.992-14.544c0-8.384,6.168-14.776,15.208-14.776
	C215.192,78.037,220.92,84.429,221.144,92.813z M192.256,230.157V122.789H219.6v107.368H192.256z"/>
<path d="M327.632,226.853c-5.736,2.64-16.976,5.504-30.424,5.504c-33.512,0-55.336-21.384-55.336-54.672
	c0-32.184,22.048-57.32,59.744-57.32c9.92,0,20.064,2.2,26.232,5.072L323,145.717c-4.408-1.984-10.808-4.184-20.496-4.184
	c-20.728,0-33.072,15.208-32.848,34.832c0,22.04,14.328,34.608,32.848,34.608c9.48,0,16.096-1.984,21.384-4.184L327.632,226.853z"/>
<path d="M374.816,169.965h0.448c2.64-4.184,5.728-8.816,8.592-12.56l26.016-34.616h32.624l-39.68,43.872l45.416,63.496h-33.288
	l-30.856-47.4l-9.264,10.808v36.592h-27.12V73.629h27.12L374.816,169.965L374.816,169.965z"/>
<g>
	
		<rect x="423.799" y="315.127" transform="matrix(-0.7071 0.7071 -0.7071 -0.7071 1034.2813 324.2866)" style="fill:#E50914;" width="52.359" height="122.447"/>
	<polygon style="fill:#E50914;" points="370.92,412.077 483.856,299.165 347.144,275.381 	"/>
</g>
</svg>